# xmcd CD database file
#
# Track frame offsets:
#	150
#	69776
#	130356
#	168616
#	217841
#
# Disc length: 3187 seconds
#
# Revision: 0
# Processed by: cddbd v1.5.2PL0 Copyright (c) Steve Scherf et al.
# Submitted via: CDex 1.70beta3
#
DISCID=400c7105
DTITLE=Frode Gjerstad - Kevin Norton - David Watson - Live Tipple
DYEAR=2013
DGENRE=Jazz
TTITLE0=Buttonwood 1
TTITLE1=Buttonwood 2
TTITLE2=Buttonwood 3
TTITLE3=Buttonwood 4
TTITLE4=Buttonwood 5
EXTD=YEAR: 2013
EXTT0=
EXTT1=
EXTT2=
EXTT3=
EXTT4=
PLAYORDER=
